<svg width="233" height="65" viewBox="0 0 233 65" fill="none" xmlns="http://www.w3.org/2000/svg">
<rect width="233" height="65" rx="10" fill="black"/>
<path fill-rule="evenodd" clip-rule="evenodd" d="M43.8751 41.45C44.6126 40.325 44.8876 39.75 45.4501 38.4875C41.3001 36.9125 40.6376 31 44.7376 28.7375C43.4876 27.1625 41.7251 26.25 40.0626 26.25C38.8626 26.25 38.0376 26.5625 37.3001 26.85C36.6751 27.0875 36.1126 27.3 35.4126 27.3C34.6626 27.3 34.0001 27.0625 33.3001 26.8125C32.5376 26.5375 31.7376 26.25 30.7376 26.25C28.8751 26.25 26.8876 27.3875 25.6251 29.3375C23.8501 32.0875 24.1626 37.2375 27.0251 41.6375C28.0501 43.2125 29.4251 44.975 31.2126 45C31.9626 45.0125 32.4501 44.7875 32.9876 44.55C33.6001 44.275 34.2626 43.975 35.4251 43.975C36.5876 43.9625 37.2376 44.275 37.8501 44.55C38.3751 44.7875 38.8501 45.0125 39.5876 45C41.4001 44.975 42.8501 43.025 43.8751 41.45Z" fill="white"/>
<path fill-rule="evenodd" clip-rule="evenodd" d="M39.7996 20C39.9996 21.375 39.4371 22.7375 38.6996 23.6875C37.9121 24.7125 36.5371 25.5125 35.2121 25.4625C34.9746 24.1375 35.5871 22.775 36.3371 21.8625C37.1746 20.8625 38.5871 20.0875 39.7996 20Z" fill="white"/>
<line x1="59.5" y1="47.5" x2="59.5" y2="17.5" stroke="#A6A6A6"/>
<path d="M96.7504 33.6876L93.2754 35.425C93.0379 35.55 92.7504 35.5 92.5504 35.3125L90.2129 32.975C89.9629 32.725 89.9629 32.3376 90.2129 32.0876L92.5879 29.7125C92.7754 29.525 93.0754 29.475 93.3129 29.6L96.7504 31.325C97.7379 31.8 97.7379 33.2001 96.7504 33.6876Z" fill="white"/>
<path d="M90.3752 28.1126C90.7627 28.3001 90.8377 28.8126 90.5377 29.1126L88.4502 31.2001L87.5627 32.0876C87.3127 32.3376 86.9252 32.3376 86.6752 32.0876L77.7502 23.1626C77.2502 22.6626 77.8377 21.8501 78.4752 22.1626L90.3752 28.1126Z" fill="white"/>
<path d="M72.5 42.6873V21.8499C72.5 21.2999 73.1625 21.0123 73.5625 21.3998L84.525 32.0374C84.7875 32.2874 84.775 32.6998 84.5125 32.9498L73.55 43.1498C73.15 43.5248 72.5 43.2373 72.5 42.6873Z" fill="white"/>
<path d="M90.3377 36.8999L78.6002 42.7749C77.9627 43.0874 77.3752 42.2749 77.8752 41.7749L86.6877 32.9624C86.9377 32.7124 87.3252 32.7124 87.5752 32.9624L90.5127 35.8999C90.8002 36.1999 90.7127 36.7124 90.3377 36.8999Z" fill="white"/>
<path d="M118.273 21H117.216C117.154 20.696 117.044 20.429 116.888 20.1989C116.735 19.9688 116.547 19.7756 116.325 19.6193C116.107 19.4602 115.864 19.3409 115.597 19.2614C115.33 19.1818 115.051 19.142 114.762 19.142C114.233 19.142 113.754 19.2756 113.325 19.5426C112.899 19.8097 112.56 20.2031 112.307 20.723C112.057 21.2429 111.932 21.8807 111.932 22.6364C111.932 23.392 112.057 24.0298 112.307 24.5497C112.56 25.0696 112.899 25.4631 113.325 25.7301C113.754 25.9972 114.233 26.1307 114.762 26.1307C115.051 26.1307 115.33 26.0909 115.597 26.0114C115.864 25.9318 116.107 25.8139 116.325 25.6577C116.547 25.4986 116.735 25.304 116.888 25.0739C117.044 24.8409 117.154 24.5739 117.216 24.2727H118.273C118.193 24.7187 118.048 25.1179 117.838 25.4702C117.628 25.8224 117.367 26.1222 117.054 26.3693C116.742 26.6136 116.391 26.7997 116.002 26.9276C115.615 27.0554 115.202 27.1193 114.762 27.1193C114.017 27.1193 113.355 26.9375 112.776 26.5739C112.196 26.2102 111.74 25.6932 111.408 25.0227C111.075 24.3523 110.909 23.5568 110.909 22.6364C110.909 21.7159 111.075 20.9205 111.408 20.25C111.74 19.5795 112.196 19.0625 112.776 18.6989C113.355 18.3352 114.017 18.1534 114.762 18.1534C115.202 18.1534 115.615 18.2173 116.002 18.3452C116.391 18.473 116.742 18.6605 117.054 18.9077C117.367 19.152 117.628 19.4503 117.838 19.8026C118.048 20.152 118.193 20.5511 118.273 21ZM122.503 27.1364C121.912 27.1364 121.394 26.9957 120.948 26.7145C120.505 26.4332 120.158 26.0398 119.908 25.5341C119.661 25.0284 119.537 24.4375 119.537 23.7614C119.537 23.0795 119.661 22.4844 119.908 21.9759C120.158 21.4673 120.505 21.0724 120.948 20.7912C121.394 20.5099 121.912 20.3693 122.503 20.3693C123.094 20.3693 123.611 20.5099 124.055 20.7912C124.501 21.0724 124.847 21.4673 125.094 21.9759C125.344 22.4844 125.469 23.0795 125.469 23.7614C125.469 24.4375 125.344 25.0284 125.094 25.5341C124.847 26.0398 124.501 26.4332 124.055 26.7145C123.611 26.9957 123.094 27.1364 122.503 27.1364ZM122.503 26.233C122.952 26.233 123.322 26.1179 123.611 25.8878C123.901 25.6577 124.116 25.3551 124.255 24.9801C124.394 24.6051 124.464 24.1989 124.464 23.7614C124.464 23.3239 124.394 22.9162 124.255 22.5384C124.116 22.1605 123.901 21.8551 123.611 21.6222C123.322 21.3892 122.952 21.2727 122.503 21.2727C122.055 21.2727 121.685 21.3892 121.395 21.6222C121.106 21.8551 120.891 22.1605 120.752 22.5384C120.613 22.9162 120.543 23.3239 120.543 23.7614C120.543 24.1989 120.613 24.6051 120.752 24.9801C120.891 25.3551 121.106 25.6577 121.395 25.8878C121.685 26.1179 122.055 26.233 122.503 26.233ZM127.004 27V20.4545H127.976V21.4773H128.061C128.198 21.1278 128.418 20.8565 128.722 20.6634C129.026 20.4673 129.391 20.3693 129.817 20.3693C130.249 20.3693 130.608 20.4673 130.895 20.6634C131.185 20.8565 131.411 21.1278 131.573 21.4773H131.641C131.808 21.1392 132.06 20.8707 132.395 20.6719C132.73 20.4702 133.132 20.3693 133.601 20.3693C134.186 20.3693 134.665 20.5526 135.037 20.919C135.409 21.2827 135.595 21.8494 135.595 22.6193V27H134.59V22.6193C134.59 22.1364 134.458 21.7912 134.193 21.5838C133.929 21.3764 133.618 21.2727 133.26 21.2727C132.8 21.2727 132.443 21.4119 132.191 21.6903C131.938 21.9659 131.811 22.3153 131.811 22.7386V27H130.789V22.517C130.789 22.1449 130.668 21.8452 130.426 21.6179C130.185 21.3878 129.874 21.2727 129.493 21.2727C129.232 21.2727 128.987 21.3423 128.76 21.4815C128.536 21.6207 128.354 21.8139 128.215 22.0611C128.078 22.3054 128.01 22.5881 128.01 22.9091V27H127.004ZM137.434 27V20.4545H138.44V27H137.434ZM137.945 19.3636C137.749 19.3636 137.58 19.2969 137.438 19.1634C137.299 19.0298 137.23 18.8693 137.23 18.6818C137.23 18.4943 137.299 18.3338 137.438 18.2003C137.58 18.0668 137.749 18 137.945 18C138.142 18 138.309 18.0668 138.448 18.2003C138.59 18.3338 138.661 18.4943 138.661 18.6818C138.661 18.8693 138.59 19.0298 138.448 19.1634C138.309 19.2969 138.142 19.3636 137.945 19.3636ZM141.287 23.0625V27H140.282V20.4545H141.253V21.4773H141.339C141.492 21.1449 141.725 20.8778 142.037 20.6761C142.35 20.4716 142.753 20.3693 143.248 20.3693C143.691 20.3693 144.079 20.4602 144.411 20.642C144.743 20.821 145.002 21.0938 145.187 21.4602C145.371 21.8239 145.464 22.2841 145.464 22.8409V27H144.458V22.9091C144.458 22.3949 144.324 21.9943 144.057 21.7074C143.79 21.4176 143.424 21.2727 142.958 21.2727C142.637 21.2727 142.35 21.3423 142.097 21.4815C141.847 21.6207 141.65 21.8239 141.505 22.0909C141.36 22.358 141.287 22.6818 141.287 23.0625ZM149.943 29.5909C149.458 29.5909 149.04 29.5284 148.691 29.4034C148.341 29.2812 148.05 29.1193 147.817 28.9176C147.587 28.7188 147.404 28.5057 147.267 28.2784L148.068 27.7159C148.159 27.8352 148.274 27.9716 148.414 28.125C148.553 28.2812 148.743 28.4162 148.985 28.5298C149.229 28.6463 149.548 28.7045 149.943 28.7045C150.472 28.7045 150.908 28.5767 151.252 28.321C151.595 28.0653 151.767 27.6648 151.767 27.1193V25.7898H151.682C151.608 25.9091 151.503 26.0568 151.367 26.233C151.233 26.4062 151.04 26.5611 150.787 26.6974C150.537 26.831 150.199 26.8977 149.773 26.8977C149.244 26.8977 148.77 26.7727 148.35 26.5227C147.932 26.2727 147.601 25.9091 147.357 25.4318C147.115 24.9545 146.994 24.375 146.994 23.6932C146.994 23.0227 147.112 22.4389 147.348 21.9418C147.584 21.4418 147.912 21.0554 148.333 20.7827C148.753 20.5071 149.239 20.3693 149.79 20.3693C150.216 20.3693 150.554 20.4403 150.804 20.5824C151.057 20.7216 151.25 20.8807 151.384 21.0597C151.52 21.2358 151.625 21.3807 151.699 21.4943H151.801V20.4545H152.773V27.1875C152.773 27.75 152.645 28.2074 152.389 28.5597C152.137 28.9148 151.796 29.1747 151.367 29.3395C150.941 29.5071 150.466 29.5909 149.943 29.5909ZM149.909 25.9943C150.313 25.9943 150.654 25.902 150.932 25.7173C151.21 25.5327 151.422 25.267 151.567 24.9205C151.712 24.5739 151.784 24.1591 151.784 23.6761C151.784 23.2045 151.713 22.7884 151.571 22.4276C151.429 22.0668 151.219 21.7841 150.941 21.5795C150.662 21.375 150.318 21.2727 149.909 21.2727C149.483 21.2727 149.128 21.3807 148.844 21.5966C148.563 21.8125 148.351 22.1023 148.209 22.4659C148.07 22.8295 148 23.233 148 23.6761C148 24.1307 148.071 24.5327 148.213 24.8821C148.358 25.2287 148.571 25.5014 148.852 25.7003C149.137 25.8963 149.489 25.9943 149.909 25.9943ZM162.625 21.9205L161.722 22.1761C161.665 22.0256 161.581 21.8793 161.47 21.7372C161.362 21.5923 161.215 21.473 161.027 21.3793C160.84 21.2855 160.6 21.2386 160.307 21.2386C159.906 21.2386 159.573 21.331 159.306 21.5156C159.041 21.6974 158.909 21.929 158.909 22.2102C158.909 22.4602 159 22.6577 159.182 22.8026C159.364 22.9474 159.648 23.0682 160.034 23.1648L161.006 23.4034C161.591 23.5455 162.027 23.7628 162.314 24.0554C162.601 24.3452 162.744 24.7187 162.744 25.1761C162.744 25.5511 162.637 25.8864 162.421 26.1818C162.208 26.4773 161.909 26.7102 161.526 26.8807C161.142 27.0511 160.696 27.1364 160.188 27.1364C159.52 27.1364 158.968 26.9915 158.53 26.7017C158.093 26.4119 157.816 25.9886 157.699 25.4318L158.654 25.1932C158.744 25.5455 158.916 25.8097 159.169 25.9858C159.425 26.1619 159.759 26.25 160.171 26.25C160.639 26.25 161.012 26.1506 161.287 25.9517C161.566 25.75 161.705 25.5085 161.705 25.2273C161.705 25 161.625 24.8097 161.466 24.6562C161.307 24.5 161.063 24.3835 160.733 24.3068L159.642 24.0511C159.043 23.9091 158.602 23.6889 158.321 23.3906C158.043 23.0895 157.904 22.7131 157.904 22.2614C157.904 21.892 158.007 21.5653 158.215 21.2812C158.425 20.9972 158.71 20.7741 159.071 20.6122C159.435 20.4503 159.847 20.3693 160.307 20.3693C160.955 20.3693 161.463 20.5114 161.833 20.7955C162.205 21.0795 162.469 21.4545 162.625 21.9205ZM166.917 27.1364C166.327 27.1364 165.808 26.9957 165.362 26.7145C164.919 26.4332 164.572 26.0398 164.322 25.5341C164.075 25.0284 163.952 24.4375 163.952 23.7614C163.952 23.0795 164.075 22.4844 164.322 21.9759C164.572 21.4673 164.919 21.0724 165.362 20.7912C165.808 20.5099 166.327 20.3693 166.917 20.3693C167.508 20.3693 168.025 20.5099 168.469 20.7912C168.915 21.0724 169.261 21.4673 169.508 21.9759C169.758 22.4844 169.883 23.0795 169.883 23.7614C169.883 24.4375 169.758 25.0284 169.508 25.5341C169.261 26.0398 168.915 26.4332 168.469 26.7145C168.025 26.9957 167.508 27.1364 166.917 27.1364ZM166.917 26.233C167.366 26.233 167.736 26.1179 168.025 25.8878C168.315 25.6577 168.53 25.3551 168.669 24.9801C168.808 24.6051 168.878 24.1989 168.878 23.7614C168.878 23.3239 168.808 22.9162 168.669 22.5384C168.53 22.1605 168.315 21.8551 168.025 21.6222C167.736 21.3892 167.366 21.2727 166.917 21.2727C166.469 21.2727 166.099 21.3892 165.809 21.6222C165.52 21.8551 165.305 22.1605 165.166 22.5384C165.027 22.9162 164.957 23.3239 164.957 23.7614C164.957 24.1989 165.027 24.6051 165.166 24.9801C165.305 25.3551 165.52 25.6577 165.809 25.8878C166.099 26.1179 166.469 26.233 166.917 26.233ZM174.078 27.1364C173.487 27.1364 172.968 26.9957 172.522 26.7145C172.079 26.4332 171.732 26.0398 171.482 25.5341C171.235 25.0284 171.112 24.4375 171.112 23.7614C171.112 23.0795 171.235 22.4844 171.482 21.9759C171.732 21.4673 172.079 21.0724 172.522 20.7912C172.968 20.5099 173.487 20.3693 174.078 20.3693C174.669 20.3693 175.186 20.5099 175.629 20.7912C176.075 21.0724 176.421 21.4673 176.669 21.9759C176.919 22.4844 177.044 23.0795 177.044 23.7614C177.044 24.4375 176.919 25.0284 176.669 25.5341C176.421 26.0398 176.075 26.4332 175.629 26.7145C175.186 26.9957 174.669 27.1364 174.078 27.1364ZM174.078 26.233C174.526 26.233 174.896 26.1179 175.186 25.8878C175.475 25.6577 175.69 25.3551 175.829 24.9801C175.968 24.6051 176.038 24.1989 176.038 23.7614C176.038 23.3239 175.968 22.9162 175.829 22.5384C175.69 22.1605 175.475 21.8551 175.186 21.6222C174.896 21.3892 174.526 21.2727 174.078 21.2727C173.629 21.2727 173.259 21.3892 172.97 21.6222C172.68 21.8551 172.465 22.1605 172.326 22.5384C172.187 22.9162 172.117 23.3239 172.117 23.7614C172.117 24.1989 172.187 24.6051 172.326 24.9801C172.465 25.3551 172.68 25.6577 172.97 25.8878C173.259 26.1179 173.629 26.233 174.078 26.233ZM179.584 23.0625V27H178.579V20.4545H179.55V21.4773H179.635C179.789 21.1449 180.022 20.8778 180.334 20.6761C180.647 20.4716 181.05 20.3693 181.545 20.3693C181.988 20.3693 182.376 20.4602 182.708 20.642C183.04 20.821 183.299 21.0938 183.483 21.4602C183.668 21.8239 183.76 22.2841 183.76 22.8409V27H182.755V22.9091C182.755 22.3949 182.621 21.9943 182.354 21.7074C182.087 21.4176 181.721 21.2727 181.255 21.2727C180.934 21.2727 180.647 21.3423 180.394 21.4815C180.144 21.6207 179.947 21.8239 179.802 22.0909C179.657 22.358 179.584 22.6818 179.584 23.0625ZM191.82 20.4545V21.3068H188.428V20.4545H191.82ZM189.416 18.8864H190.422V25.125C190.422 25.4091 190.463 25.6222 190.546 25.7642C190.631 25.9034 190.739 25.9972 190.869 26.0455C191.003 26.0909 191.144 26.1136 191.291 26.1136C191.402 26.1136 191.493 26.108 191.564 26.0966C191.635 26.0824 191.692 26.071 191.735 26.0625L191.939 26.9659C191.871 26.9915 191.776 27.017 191.654 27.0426C191.531 27.071 191.377 27.0852 191.189 27.0852C190.905 27.0852 190.627 27.0241 190.354 26.902C190.084 26.7798 189.86 26.5938 189.681 26.3438C189.504 26.0938 189.416 25.7784 189.416 25.3977V18.8864ZM195.921 27.1364C195.33 27.1364 194.812 26.9957 194.366 26.7145C193.923 26.4332 193.576 26.0398 193.326 25.5341C193.079 25.0284 192.955 24.4375 192.955 23.7614C192.955 23.0795 193.079 22.4844 193.326 21.9759C193.576 21.4673 193.923 21.0724 194.366 20.7912C194.812 20.5099 195.33 20.3693 195.921 20.3693C196.512 20.3693 197.029 20.5099 197.472 20.7912C197.919 21.0724 198.265 21.4673 198.512 21.9759C198.762 22.4844 198.887 23.0795 198.887 23.7614C198.887 24.4375 198.762 25.0284 198.512 25.5341C198.265 26.0398 197.919 26.4332 197.472 26.7145C197.029 26.9957 196.512 27.1364 195.921 27.1364ZM195.921 26.233C196.37 26.233 196.74 26.1179 197.029 25.8878C197.319 25.6577 197.534 25.3551 197.673 24.9801C197.812 24.6051 197.882 24.1989 197.882 23.7614C197.882 23.3239 197.812 22.9162 197.673 22.5384C197.534 22.1605 197.319 21.8551 197.029 21.6222C196.74 21.3892 196.37 21.2727 195.921 21.2727C195.472 21.2727 195.103 21.3892 194.813 21.6222C194.524 21.8551 194.309 22.1605 194.17 22.5384C194.031 22.9162 193.961 23.3239 193.961 23.7614C193.961 24.1989 194.031 24.6051 194.17 24.9801C194.309 25.3551 194.524 25.6577 194.813 25.8878C195.103 26.1179 195.472 26.233 195.921 26.233ZM201.155 27.0682C200.945 27.0682 200.765 26.9929 200.614 26.8423C200.464 26.6918 200.388 26.5114 200.388 26.3011C200.388 26.0909 200.464 25.9105 200.614 25.7599C200.765 25.6094 200.945 25.5341 201.155 25.5341C201.366 25.5341 201.546 25.6094 201.697 25.7599C201.847 25.9105 201.922 26.0909 201.922 26.3011C201.922 26.4403 201.887 26.5682 201.816 26.6847C201.748 26.8011 201.655 26.8949 201.539 26.9659C201.425 27.0341 201.297 27.0682 201.155 27.0682ZM201.155 22.2102C200.945 22.2102 200.765 22.1349 200.614 21.9844C200.464 21.8338 200.388 21.6534 200.388 21.4432C200.388 21.233 200.464 21.0526 200.614 20.902C200.765 20.7514 200.945 20.6761 201.155 20.6761C201.366 20.6761 201.546 20.7514 201.697 20.902C201.847 21.0526 201.922 21.233 201.922 21.4432C201.922 21.5824 201.887 21.7102 201.816 21.8267C201.748 21.9432 201.655 22.0369 201.539 22.108C201.425 22.1761 201.297 22.2102 201.155 22.2102Z" fill="#F7F5FF"/>
<path d="M110.681 36.65V46.85C110.681 46.94 110.741 47 110.831 47H112.331C112.421 47 112.481 46.94 112.481 46.85V36.65C112.481 36.56 112.421 36.5 112.331 36.5H110.831C110.741 36.5 110.681 36.56 110.681 36.65ZM118.423 47.15C121.678 47.15 123.223 44.87 123.223 41.75C123.223 38.6 121.633 36.35 118.423 36.35C115.153 36.35 113.593 38.615 113.593 41.75C113.593 44.915 115.183 47.15 118.423 47.15ZM115.408 41.75C115.408 39.26 116.518 37.805 118.423 37.805C120.313 37.805 121.423 39.26 121.423 41.75C121.423 44.24 120.313 45.695 118.423 45.695C116.518 45.695 115.408 44.24 115.408 41.75ZM128.353 47.15C130.798 47.15 132.658 45.755 132.658 43.91C132.658 41.84 130.603 41.27 128.638 40.88C127.318 40.625 126.178 40.28 126.178 39.29C126.178 38.42 127.093 37.805 128.353 37.805C129.658 37.805 130.543 38.405 130.543 39.485C130.543 39.59 130.603 39.635 130.693 39.635H132.193C132.283 39.635 132.343 39.575 132.343 39.485C132.313 37.55 130.558 36.35 128.353 36.35C126.043 36.35 124.378 37.625 124.378 39.44C124.378 41.465 126.463 42.02 128.398 42.44C129.808 42.725 130.858 43.04 130.858 44.075C130.858 45.02 130.108 45.695 128.353 45.695C126.883 45.695 125.848 44.915 125.848 43.76C125.848 43.655 125.773 43.61 125.683 43.61H124.198C124.108 43.61 124.048 43.655 124.048 43.745C124.078 45.845 125.998 47.15 128.353 47.15ZM136.729 44.24C136.729 46.01 138.169 47.15 140.449 47.15C141.574 47.15 142.459 46.595 143.014 46.025C143.314 46.505 143.839 47 144.754 47H146.284C146.374 47 146.434 46.94 146.434 46.85V45.695C146.434 45.605 146.374 45.545 146.284 45.545H144.664C144.379 45.545 144.214 45.38 144.214 45.095V42.26L146.284 42.335C146.374 42.335 146.434 42.275 146.434 42.185V40.985C146.434 40.895 146.374 40.835 146.284 40.835L144.214 40.91V39.125C144.214 37.46 142.984 36.35 140.599 36.35C138.499 36.35 137.089 37.475 137.089 39.125C137.089 40.55 137.989 41.315 139.354 41.615C137.704 41.945 136.729 42.86 136.729 44.24ZM138.544 44.09C138.544 42.935 139.369 42.305 140.449 42.305H142.414V44.21C142.369 45.14 141.649 45.695 140.449 45.695C139.219 45.695 138.544 45.08 138.544 44.09ZM138.874 39.395C138.874 38.345 139.654 37.7 140.719 37.7C141.874 37.7 142.414 38.255 142.414 39.335V40.865H140.449C139.489 40.865 138.874 40.25 138.874 39.395ZM154.792 38.03L156.577 42.965H152.977L154.762 38.03H154.792ZM149.602 46.835C149.557 46.94 149.617 47 149.722 47H151.387C151.462 47 151.537 46.97 151.567 46.88L152.467 44.405H157.102L158.002 46.88C158.032 46.955 158.107 47 158.182 47H159.847C159.952 47 160.012 46.94 159.967 46.835L156.067 36.62C156.037 36.53 155.962 36.5 155.887 36.5H153.682C153.607 36.5 153.532 36.53 153.502 36.62L149.602 46.835ZM160.738 39.65V46.85C160.738 46.94 160.798 47 160.888 47H162.313C162.403 47 162.463 46.94 162.463 46.85V43.25C162.463 41.75 162.973 40.7 164.113 40.7C165.298 40.7 165.688 41.75 165.688 43.25V46.85C165.688 46.94 165.748 47 165.838 47H167.263C167.353 47 167.413 46.94 167.413 46.85V43.25C167.413 40.925 166.978 39.35 164.848 39.35C163.333 39.35 162.823 40.085 162.493 41.12H162.463V39.65C162.463 39.56 162.403 39.5 162.313 39.5H160.888C160.798 39.5 160.738 39.56 160.738 39.65ZM171.465 47.15C172.755 47.15 173.49 46.475 173.835 45.455H173.865V46.85C173.865 46.94 173.925 47 174.015 47H175.44C175.53 47 175.59 46.94 175.59 46.85V36.35C175.59 36.26 175.53 36.2 175.44 36.2H174.015C173.925 36.2 173.865 36.26 173.865 36.35V41.3H173.835C173.52 40.13 172.815 39.35 171.465 39.35C169.665 39.35 168.315 40.925 168.315 43.295C168.315 45.68 169.695 47.15 171.465 47.15ZM170.115 43.295C170.115 41.6 170.94 40.7 171.975 40.7C173.025 40.7 173.79 41.6 173.79 43.295C173.79 44.945 173.025 45.8 171.975 45.8C170.94 45.8 170.115 44.945 170.115 43.295ZM176.866 39.65V46.85C176.866 46.94 176.926 47 177.016 47H178.441C178.531 47 178.591 46.94 178.591 46.85V43.445C178.591 41.825 179.266 40.7 180.826 40.7H181.006C181.096 40.7 181.156 40.64 181.156 40.55V39.5C181.156 39.41 181.096 39.35 181.006 39.35H180.826C179.431 39.35 178.921 40.07 178.621 41H178.591V39.65C178.591 39.56 178.531 39.5 178.441 39.5H177.016C176.926 39.5 176.866 39.56 176.866 39.65ZM184.687 47.15C186.727 47.15 188.227 45.56 188.227 43.295C188.227 40.97 186.727 39.35 184.687 39.35C182.647 39.35 181.147 40.97 181.147 43.295C181.147 45.56 182.647 47.15 184.687 47.15ZM182.947 43.295C182.947 41.6 183.697 40.7 184.687 40.7C185.677 40.7 186.427 41.6 186.427 43.295C186.427 44.945 185.677 45.8 184.687 45.8C183.697 45.8 182.947 44.945 182.947 43.295ZM189.363 47H190.758C190.848 47 190.923 46.94 190.923 46.85V39.65C190.923 39.56 190.848 39.5 190.758 39.5H189.363C189.273 39.5 189.198 39.56 189.198 39.65V46.85C189.198 46.94 189.273 47 189.363 47ZM189.093 37.025C189.093 37.565 189.528 38 190.068 38C190.608 38 191.043 37.565 191.043 37.025C191.043 36.485 190.608 36.05 190.068 36.05C189.528 36.05 189.093 36.485 189.093 37.025ZM195.049 47.15C196.339 47.15 197.074 46.475 197.419 45.455H197.449V46.85C197.449 46.94 197.509 47 197.599 47H199.024C199.114 47 199.174 46.94 199.174 46.85V36.35C199.174 36.26 199.114 36.2 199.024 36.2H197.599C197.509 36.2 197.449 36.26 197.449 36.35V41.3H197.419C197.104 40.13 196.399 39.35 195.049 39.35C193.249 39.35 191.899 40.925 191.899 43.295C191.899 45.68 193.279 47.15 195.049 47.15ZM193.699 43.295C193.699 41.6 194.524 40.7 195.559 40.7C196.609 40.7 197.374 41.6 197.374 43.295C197.374 44.945 196.609 45.8 195.559 45.8C194.524 45.8 193.699 44.945 193.699 43.295Z" fill="white"/>
</svg>
