<svg width="11" height="20" viewBox="0 0 11 20" fill="none" xmlns="http://www.w3.org/2000/svg"><path d="M2.77069 9.78029C4.20591 9.13695 5.31096 7.90206 5.78417 6.38868C6.24692 7.90499 7.34763 9.14192 8.7794 9.78454C7.33851 10.5111 6.25826 11.8221 5.82986 13.394C5.35614 11.8127 4.2405 10.5034 2.77069 9.78029Z" stroke="white"></path><path d="M5.81277 8.58503L5.87035 9.35824L5.9015 9.77664L6.31895 9.81861L6.67901 9.85481L6.28903 9.91797L5.89202 9.98226L5.86973 10.3838L5.82384 11.2107L5.76616 10.377L5.73867 9.97966L5.34522 9.91763L4.94701 9.85486L5.31606 9.81874L5.74069 9.77718L5.76644 9.35129L5.81277 8.58503Z" stroke="white"></path></svg>