<svg viewBox="0 0 35 35" fill="none" xmlns="http://www.w3.org/2000/svg"><path opacity="0.4" d="m31.587 15.225-1.43 6.096c-1.224 5.264-3.645 7.394-8.195 6.956-.73-.058-1.517-.19-2.362-.394l-2.45-.583c-6.082-1.444-7.963-4.448-6.534-10.544l1.43-6.11c.291-1.24.641-2.319 1.079-3.209 1.706-3.529 4.608-4.477 9.479-3.325l2.435.57c6.11 1.428 7.977 4.447 6.548 10.543Z" fill="currentColor"></path><path d="M21.963 28.277c-.904.613-2.042 1.123-3.427 1.575l-2.305.758c-5.79 1.867-8.837.307-10.718-5.483l-1.867-5.76c-1.867-5.79-.32-8.852 5.469-10.72l2.304-.757c.598-.19 1.167-.35 1.706-.452-.437.89-.787 1.968-1.079 3.208l-1.43 6.11c-1.428 6.096.453 9.1 6.534 10.544l2.45.583c.846.204 1.634.336 2.363.394ZM25.506 15.327c-.087 0-.175-.015-.277-.03l-7.072-1.793a1.093 1.093 0 0 1-.788-1.327 1.093 1.093 0 0 1 1.327-.787l7.073 1.793c.583.146.933.744.788 1.327a1.09 1.09 0 0 1-1.05.817Z" fill="currentColor"></path><path d="M21.234 20.256c-.088 0-.175-.014-.277-.029l-4.244-1.08a1.093 1.093 0 0 1-.787-1.326 1.093 1.093 0 0 1 1.327-.788l4.244 1.08c.583.145.933.743.787 1.327a1.062 1.062 0 0 1-1.05.816Z" fill="currentColor"></path></svg>